<svg fill="none" xmlns="http://www.w3.org/2000/svg" viewBox="0 0 59 55"><path d="m36.746 14.63.011.006a1.738 1.738 0 0 1 .655 2.418l-.005.008L24.32 39.706v.002a1.81 1.81 0 0 1-1.551.888h-.02c-.3.014-.598-.063-.854-.22l-.007-.004-.007-.004a1.772 1.772 0 0 1-.657-2.429l13.09-22.65.002-.002a1.773 1.773 0 0 1 2.431-.658ZM26.45 21.726v.04a7.413 7.413 0 0 1-7.053 7.724 7.45 7.45 0 0 1-7.09-7.726v-.035a7.45 7.45 0 0 1 7.09-7.692 7.414 7.414 0 0 1 7.054 7.69Zm-7.11 4.18.057.007.057-.006a3.874 3.874 0 0 0 3.415-4.159 3.834 3.834 0 0 0-3.42-4.165l-.052-.005-.052.005a3.874 3.874 0 0 0-3.457 4.165 3.907 3.907 0 0 0 3.451 4.159Zm12.876 7.331.001-.02v-.02a7.413 7.413 0 0 1 7.053-7.69 7.458 7.458 0 0 1 7.09 7.692v.036a7.45 7.45 0 0 1-7.09 7.726 7.421 7.421 0 0 1-7.054-7.724Zm6.996 4.14.058.007.057-.006a3.91 3.91 0 0 0 3.451-4.16 3.87 3.87 0 0 0-3.456-4.164l-.055-.006-.055.007a3.874 3.874 0 0 0-3.414 4.161 3.87 3.87 0 0 0 3.414 4.162Z" fill="#06F" stroke="#06F"/><path d="M29.318.514h.031a27.962 27.962 0 0 1 19.998 7.542 27.933 27.933 0 0 1 8.82 19.444 27.933 27.933 0 0 1-8.82 19.444 27.962 27.962 0 0 1-19.998 7.542h-.031a27.962 27.962 0 0 1-19.999-7.542A27.932 27.932 0 0 1 .5 27.5 27.932 27.932 0 0 1 9.32 8.056 27.962 27.962 0 0 1 29.317.514ZM4.084 27.48l-.001.02v.02a24.39 24.39 0 0 0 7.805 16.906 24.414 24.414 0 0 0 17.445 6.48 24.413 24.413 0 0 0 17.446-6.48 24.389 24.389 0 0 0 7.804-16.906v-.04a24.389 24.389 0 0 0-7.804-16.906 24.414 24.414 0 0 0-17.446-6.48 24.414 24.414 0 0 0-17.445 6.48A24.39 24.39 0 0 0 4.084 27.48Z" fill="#06F" stroke="#06F"/></svg>